<?xml version="1.0" encoding="UTF-8" standalone="no"?>
<!-- Created with Inkscape (http://www.inkscape.org/) -->

<svg
   xmlns:dc="http://purl.org/dc/elements/1.1/"
   xmlns:cc="http://creativecommons.org/ns#"
   xmlns:rdf="http://www.w3.org/1999/02/22-rdf-syntax-ns#"
   xmlns:svg="http://www.w3.org/2000/svg"
   xmlns="http://www.w3.org/2000/svg"
   xmlns:sodipodi="http://sodipodi.sourceforge.net/DTD/sodipodi-0.dtd"
   xmlns:inkscape="http://www.inkscape.org/namespaces/inkscape"
   width="16px"
   height="16px"
   id="svg2985"
   version="1.1"
   inkscape:version="0.48.2 r9819"
   sodipodi:docname="passportjs - Copy.svg">
  <defs
     id="defs2987" />
  <sodipodi:namedview
     id="base"
     pagecolor="#ffffff"
     bordercolor="#666666"
     borderopacity="1.0"
     inkscape:pageopacity="0.0"
     inkscape:pageshadow="2"
     inkscape:zoom="1"
     inkscape:cx="-54.319944"
     inkscape:cy="-8.5996622"
     inkscape:current-layer="layer5"
     showgrid="false"
     inkscape:grid-bbox="true"
     inkscape:document-units="px"
     inkscape:snap-grids="false"
     inkscape:snap-page="true"
     inkscape:window-width="1680"
     inkscape:window-height="987"
     inkscape:window-x="-8"
     inkscape:window-y="-8"
     inkscape:window-maximized="1"
     inkscape:object-nodes="true"
     showborder="false">
    <inkscape:grid
       type="xygrid"
       id="grid2993"
       empspacing="4"
       visible="true"
       enabled="true"
       snapvisiblegridlinesonly="true"
       spacingx="0.5px"
       spacingy="0.5px" />
  </sodipodi:namedview>
  <metadata
     id="metadata2990">
    <rdf:RDF>
      <cc:Work
         rdf:about="">
        <dc:format>image/svg+xml</dc:format>
        <dc:type
           rdf:resource="http://purl.org/dc/dcmitype/StillImage" />
        <dc:title></dc:title>
      </cc:Work>
    </rdf:RDF>
  </metadata>
  <g
     id="layer1"
     inkscape:label="Layer 1"
     inkscape:groupmode="layer"
     style="display:none">
    <path
       style="fill:#000000;stroke:none"
       d="M 0,0 0,14 6,16 16,14 16,0 6,2 z"
       id="path2995"
       inkscape:connector-curvature="0"
       sodipodi:nodetypes="ccccccc" />
  </g>
  <g
     inkscape:groupmode="layer"
     id="layer3"
     inkscape:label="body2"
     style="display:none">
    <path
       style="fill:#000000;stroke:none"
       d="m 0,4 5.5,12 9,-4 L 9,0 z"
       id="path3072"
       inkscape:connector-curvature="0"
       sodipodi:nodetypes="ccccc" />
  </g>
  <g
     inkscape:groupmode="layer"
     id="layer5"
     inkscape:label="back">
    <path
       style="fill:#000000;stroke:none"
       d="m 8.5,14.5 7.5,-1 -2,-12 -7.5,1 z"
       id="path3196"
       inkscape:connector-curvature="0"
       sodipodi:nodetypes="ccccc" />
    <path
       sodipodi:type="inkscape:offset"
       inkscape:radius="-1"
       inkscape:original="M 14 1.5 L 6.5 2.5 L 8.5 14.5 L 16 13.5 L 14 1.5 z "
       style="fill:#ffffff;stroke:none"
       id="path3019"
       d="m 13.53125,2.125 -6.375,0.84375 1.8125,10.90625 6.375,-0.84375 L 13.53125,2.125 z" />
  </g>
  <g
     style="display:inline"
     inkscape:label="body2 copy"
     id="g3155"
     inkscape:groupmode="layer">
    <rect
       transform="matrix(0.91381501,-0.40613068,0.40613068,0.91381501,0,0)"
       style="fill:#000000;stroke:none;display:inline"
       id="rect3132-1"
       width="9.5593433"
       height="13.260515"
       x="-1.5783248"
       y="3.5513124" />
  </g>
  <path
     sodipodi:nodetypes="ccscscscscc"
     inkscape:connector-curvature="0"
     id="path3031"
     d="M 6.8384749,7.5353286 8.7932921,5.1616632 c 0,0 0.8123168,2.4025801 0.4653997,3.3045417 -0.1734586,0.4509808 -1.0704924,0.9773894 -1.0704924,0.9773894 0,0 0.5172941,0.035254 0.6050542,0.2327191 0.1755207,0.3949306 -0.4654381,1.2101086 -0.4654381,1.2101086 0,0 -1.0345878,-0.07051 -1.2101085,-0.465438 -0.08776,-0.197465 0.2327191,-0.6050545 0.2327191,-0.6050545 0,0 -0.9918467,0.3130745 -1.4428275,0.139616 C 5.005637,9.6086284 3.7666522,7.3956741 3.7666522,7.3956741 z"
     style="fill:#ffffff;stroke:none" />
  <path
     transform="matrix(0.96737726,-0.42993558,0.42993558,0.96737726,11.733051,-4.9108832)"
     d="M -9,8.5 -9.8660254,8 l 0,-1 L -9,6.5 -8.1339746,7 l 0,1 z"
     inkscape:randomized="0"
     inkscape:rounded="0"
     inkscape:flatsided="true"
     sodipodi:arg2="2.0943951"
     sodipodi:arg1="1.5707963"
     sodipodi:r2="0.96824586"
     sodipodi:r1="1"
     sodipodi:cy="7.5"
     sodipodi:cx="-9"
     sodipodi:sides="6"
     id="path3049"
     style="fill:#ffffff;stroke:none"
     sodipodi:type="star" />
  <g
     id="g3027"
     transform="matrix(0.83777331,-0.37233515,0.37233515,0.83777331,-0.28252136,1.670877)"
     style="fill:#ffffff">
    <path
       d="m 3.5,14 0,0.447916 0.671224,0 C 4.196374,14.28877 4.333818,14.166667 4.5,14.166667 c 0.166181,0 0.303625,0.122103 0.328776,0.281249 l 0.671224,0 L 5.5,14 z m 0,0.552084 0,0.447916 2,0 0,-0.447916 -0.671224,0 C 4.803626,14.711229 4.666181,14.833333 4.5,14.833333 c -0.166182,0 -0.303626,-0.122104 -0.328776,-0.281249 z"
       id="path15"
       inkscape:connector-curvature="0"
       sodipodi:nodetypes="cccscccccccccscc"
       style="fill:#ffffff" />
    <circle
       d="m 63.5,29 c 0,6.075132 -4.924868,11 -11,11 -6.075132,0 -11,-4.924868 -11,-11 0,-6.075132 4.924868,-11 11,-11 6.075132,0 11,4.924868 11,11 z"
       r="11"
       cy="29"
       cx="52.5"
       id="circle17"
       sodipodi:cx="52.5"
       sodipodi:cy="29"
       sodipodi:rx="11"
       sodipodi:ry="11"
       transform="matrix(0.02083332,0,0,0.02083332,3.406251,13.895834)"
       style="fill:#ffffff" />
  </g>
  <rect
     y="5.079278"
     x="-0.019980125"
     height="1.3751799"
     width="6.4175057"
     id="rect3051"
     style="fill:#ffffff;stroke:none"
     transform="matrix(0.91381501,-0.40613068,0.40613068,0.91381501,0,0)" />
</svg>
