<?xml version="1.0" encoding="UTF-8" standalone="no"?>
<!-- Created with Inkscape (http://www.inkscape.org/) -->

<svg
   xmlns:dc="http://purl.org/dc/elements/1.1/"
   xmlns:cc="http://creativecommons.org/ns#"
   xmlns:rdf="http://www.w3.org/1999/02/22-rdf-syntax-ns#"
   xmlns:svg="http://www.w3.org/2000/svg"
   xmlns="http://www.w3.org/2000/svg"
   xmlns:xlink="http://www.w3.org/1999/xlink"
   xmlns:sodipodi="http://sodipodi.sourceforge.net/DTD/sodipodi-0.dtd"
   xmlns:inkscape="http://www.inkscape.org/namespaces/inkscape"
   width="16px"
   height="16px"
   id="svg2985"
   version="1.1"
   inkscape:version="0.48.2 r9819"
   sodipodi:docname="passportjs.svg">
  <defs
     id="defs2987" />
  <sodipodi:namedview
     id="base"
     pagecolor="#ffffff"
     bordercolor="#666666"
     borderopacity="1.0"
     inkscape:pageopacity="0.0"
     inkscape:pageshadow="2"
     inkscape:zoom="32"
     inkscape:cx="-1.1866443"
     inkscape:cy="10.553844"
     inkscape:current-layer="layer2"
     showgrid="false"
     inkscape:grid-bbox="true"
     inkscape:document-units="px"
     inkscape:snap-grids="true"
     inkscape:snap-page="true"
     inkscape:window-width="1680"
     inkscape:window-height="987"
     inkscape:window-x="-8"
     inkscape:window-y="-8"
     inkscape:window-maximized="1"
     inkscape:object-nodes="true"
     showborder="false">
    <inkscape:grid
       type="xygrid"
       id="grid2993"
       empspacing="4"
       visible="true"
       enabled="true"
       snapvisiblegridlinesonly="true"
       spacingx="0.5px"
       spacingy="0.5px" />
  </sodipodi:namedview>
  <metadata
     id="metadata2990">
    <rdf:RDF>
      <cc:Work
         rdf:about="">
        <dc:format>image/svg+xml</dc:format>
        <dc:type
           rdf:resource="http://purl.org/dc/dcmitype/StillImage" />
        <dc:title />
      </cc:Work>
    </rdf:RDF>
  </metadata>
  <g
     id="layer1"
     inkscape:label="Layer 1"
     inkscape:groupmode="layer"
     style="display:none">
    <path
       style="fill:#000000;stroke:none"
       d="M 0,0 0,14 6,16 16,14 16,0 6,2 z"
       id="path2995"
       inkscape:connector-curvature="0"
       sodipodi:nodetypes="ccccccc" />
  </g>
  <g
     inkscape:groupmode="layer"
     id="layer3"
     inkscape:label="body2"
     style="display:none">
    <path
       style="fill:#000000;stroke:none"
       d="m 0,4 5.5,12 9,-4 L 9,0 z"
       id="path3072"
       inkscape:connector-curvature="0"
       sodipodi:nodetypes="ccccc" />
  </g>
  <g
     inkscape:groupmode="layer"
     id="layer5"
     inkscape:label="back">
    <path
       style="fill:#000000;stroke:none"
       d="m 8.5,14.5 7.5,-1 -2,-12 -7.5,1 z"
       id="path3196"
       inkscape:connector-curvature="0"
       sodipodi:nodetypes="ccccc" />
  </g>
  <g
     style="display:inline"
     inkscape:label="body2 copy"
     id="g3155"
     inkscape:groupmode="layer">
    <rect
       transform="matrix(0.91381501,-0.40613068,0.40613068,0.91381501,0,0)"
       style="fill:#000000;stroke:none;display:inline"
       id="rect3132-1"
       width="9.5593433"
       height="13.260515"
       x="-1.5783248"
       y="3.5513124" />
  </g>
  <g
     id="cover"
     transform="matrix(0.83777331,-0.37233515,0.37233515,0.83777331,-0.28252136,1.670877)">
    <rect
       style="fill:#ffffff;stroke:none"
       id="rect3039"
       width="9"
       height="13"
       x="0"
       y="3" />
    <path
       style="fill:#000000;stroke:none"
       d="m 4.5,9 3,-1.5 c 0,0 -0.254644,2.754644 -1,3.5 -0.372678,0.372678 -1.5,0.5 -1.5,0.5 0,0 0.5,0.264298 0.5,0.5 0,0.471405 -1,1 -1,1 0,0 -1,-0.528595 -1,-1 C 3.5,11.764298 4,11.5 4,11.5 4,11.5 2.872678,11.372678 2.5,11 1.754644,10.254644 1.5,7.5 1.5,7.5 z"
       id="path3031"
       inkscape:connector-curvature="0"
       sodipodi:nodetypes="ccscscscscc" />
    <path
       sodipodi:type="star"
       style="fill:#000000;stroke:none"
       id="path3049"
       sodipodi:sides="6"
       sodipodi:cx="-9"
       sodipodi:cy="7.5"
       sodipodi:r1="1"
       sodipodi:r2="0.96824586"
       sodipodi:arg1="1.5707963"
       sodipodi:arg2="2.0943951"
       inkscape:flatsided="true"
       inkscape:rounded="0"
       inkscape:randomized="0"
       d="M -9,8.5 -9.8660254,8 l 0,-1 L -9,6.5 -8.1339746,7 l 0,1 z"
       transform="matrix(1.1547005,0,0,1.1547005,14.892305,-1.237604)" />
    <g
       id="g3027">
      <path
         sodipodi:nodetypes="cccscccccccccscc"
         inkscape:connector-curvature="0"
         id="path15"
         d="m 3.5,14 0,0.447916 0.671224,0 C 4.196374,14.28877 4.333818,14.166667 4.5,14.166667 c 0.166181,0 0.303625,0.122103 0.328776,0.281249 l 0.671224,0 L 5.5,14 z m 0,0.552084 0,0.447916 2,0 0,-0.447916 -0.671224,0 C 4.803626,14.711229 4.666181,14.833333 4.5,14.833333 c -0.166182,0 -0.303626,-0.122104 -0.328776,-0.281249 z" />
      <circle
         transform="matrix(0.02083332,0,0,0.02083332,3.406251,13.895834)"
         sodipodi:ry="11"
         sodipodi:rx="11"
         sodipodi:cy="29"
         sodipodi:cx="52.5"
         id="circle17"
         cx="52.5"
         cy="29"
         r="11" />
    </g>
    <rect
       style="fill:#000000;stroke:none"
       id="rect3051"
       width="7"
       height="1.5"
       x="1"
       y="4" />
  </g>
</svg>
